<svg width="40" height="56" viewBox="0 0 40 56" fill="none" xmlns="http://www.w3.org/2000/svg">
<g clip-path="url(#clip0_233_20)">
<path d="M3.93511 51.2684L0.360443 11.1747H39.6396L36.0613 51.2622L19.976 55.7213L3.93511 51.2684Z" fill="#E44D26"/>
<path d="M20 52.3129L32.9973 48.7093L36.0556 14.4533H20V52.3129Z" fill="#F16529"/>
<path d="M20 29.3236H13.4929L13.044 24.2876H20V19.3702H7.66978L7.78712 20.6898L8.99601 34.2404H20V29.3236ZM20 42.0938L19.9782 42.0996L14.5022 40.6204L14.152 36.6991H9.21556L9.90445 44.42L19.9773 47.2164L20 47.2098V42.0938Z" fill="#EBEBEB"/>
<path d="M4.01511 0.278667H6.51377V2.748H8.79999V0.278667H11.2991V7.75511H8.79999V5.25156H6.51422V7.75511H4.01511V0.278667ZM14.5849 2.75822H12.3849V0.278667H19.2849V2.75822H17.084V7.75511H14.5849V2.75822ZM20.38 0.278667H22.9853L24.5884 2.90578L26.1898 0.278667H28.7964V7.75511H26.3071V4.04933L24.5884 6.70755H24.5449L22.8249 4.04933V7.75511H20.3796V0.278667H20.38ZM30.0404 0.278667H32.54V5.284H36.0542V7.75556H30.0404V0.278667Z" fill="#181818"/>
<path d="M19.9831 29.3236V34.2404H26.0382L25.4676 40.6178L19.9831 42.0982V47.2138L30.064 44.42L30.1378 43.5889L31.2933 30.6436L31.4133 29.3236H30.088H19.9831ZM19.9831 19.3702V24.2876H31.8609L31.9591 23.1822L32.1836 20.6898L32.3013 19.3702H19.9831Z" fill="white"/>
</g>
<defs>
<clipPath id="clip0_233_20">
<rect width="40" height="56" fill="white"/>
</clipPath>
</defs>
</svg>
