<svg width="40" height="56" viewBox="0 0 40 56" fill="none" xmlns="http://www.w3.org/2000/svg">
<g clip-path="url(#clip0_233_27)">
<path d="M31.0112 2.49825H27.7891L31.1399 6.15307V7.89298H24.2384V5.8557H27.5888L24.2384 2.20088V0.459211H31.0112V2.49825ZM22.87 2.49825H19.6479L22.9987 6.15307V7.89298H16.0967V5.8557H19.4476L16.0967 2.20088V0.459211H22.87V2.49825ZM14.8086 2.58158H11.3316V5.77061H14.8086V7.89298H8.86008V0.459211H14.8086V2.58158Z" fill="#131313"/>
<path d="M4.12203 51.1167L0.588799 11.2864H39.4108L35.8745 51.1101L19.976 55.5408L4.12203 51.1167Z" fill="#1572B6"/>
<path d="M20.0004 52.1544L32.8465 48.5746L35.8688 14.5434H20.0004V52.1544Z" fill="#33A9DC"/>
<path d="M20 28.9737H26.4311L26.8758 23.9715H20V19.0864H32.1872L32.0707 20.3969L30.8764 33.8583H20V28.9737Z" fill="white"/>
<path d="M20.0292 41.6605L20.0079 41.6667L14.5952 40.1974L14.2487 36.3013H9.37062L10.0518 43.9715L20.007 46.7491L20.0297 46.7425L20.0292 41.6605Z" fill="#EBEBEB"/>
<path d="M26.0183 33.6518L25.4327 40.1939L20.0122 41.6645V46.7469L29.9757 43.9715L30.049 43.1461L30.8947 33.6518H26.0183Z" fill="white"/>
<path d="M20.017 19.0864V23.9711H8.27753L8.17979 22.8732L7.95855 20.3969L7.84204 19.0864H20.017ZM20 28.9741V33.8592H14.6559L14.5585 32.7614L14.3369 30.2846L14.2204 28.9741H20Z" fill="#EBEBEB"/>
</g>
<defs>
<clipPath id="clip0_233_27">
<rect width="40" height="56" fill="white"/>
</clipPath>
</defs>
</svg>
