<svg width="40" height="40" viewBox="0 0 40 40" fill="none" xmlns="http://www.w3.org/2000/svg">
<g clip-path="url(#clip0_233_51)">
<path fill-rule="evenodd" clip-rule="evenodd" d="M20 0.472504C12.7919 0.472504 6.94642 6.42469 6.94642 13.7678C6.94642 19.6419 10.6865 24.6256 15.8733 26.3834C16.5256 26.5066 16.7652 26.095 16.7652 25.7438C16.7652 25.4269 16.7529 24.3794 16.7474 23.2688C13.1156 24.0728 12.3495 21.7 12.3495 21.7C11.7558 20.1631 10.9001 19.7544 10.9001 19.7544C9.71576 18.9294 10.9891 18.9463 10.9891 18.9463C12.3001 19.04 12.9904 20.3166 12.9904 20.3166C14.1545 22.3491 16.0442 21.7613 16.7888 21.4216C16.9064 20.5622 17.2445 19.9753 17.6179 19.6434C14.7184 19.3075 11.6705 18.1672 11.6705 13.0728C11.6705 11.6213 12.1804 10.4353 13.0156 9.50407C12.88 9.16907 12.4332 7.81657 13.142 5.98532C13.142 5.98532 14.238 5.62844 16.7318 7.34875C17.7734 7.05407 18.8902 6.90625 19.9994 6.90125C21.1088 6.90657 22.2263 7.05438 23.2695 7.34875C25.7608 5.62875 26.8555 5.98563 26.8555 5.98563C27.5661 7.81688 27.1194 9.16907 26.9838 9.50438C27.8208 10.435 28.327 11.6213 28.327 13.0731C28.327 18.1794 25.2733 19.3038 22.3665 19.6325C22.8347 20.045 23.252 20.8544 23.252 22.095C23.252 23.8738 23.2372 25.3053 23.2372 25.7431C23.2372 26.0963 23.4723 26.5113 24.1338 26.3806C29.3178 24.6206 33.053 19.6388 33.053 13.7666C33.0536 6.425 27.2093 0.472504 20 0.472504Z" fill="#181616"/>
<path d="M11.8908 19.5613C11.8616 19.6275 11.7595 19.6472 11.6668 19.6019C11.5717 19.5581 11.5189 19.4684 11.5496 19.4019C11.5772 19.3344 11.6797 19.3153 11.7745 19.3606C11.8696 19.4044 11.9233 19.495 11.8908 19.5613ZM12.4194 20.1625C12.3572 20.2209 12.2354 20.1938 12.1525 20.1006C12.0672 20.0078 12.0513 19.8838 12.1145 19.8244C12.1783 19.7656 12.2964 19.7931 12.3814 19.8859C12.4673 19.9797 12.4842 20.1025 12.4191 20.1622L12.4194 20.1625ZM12.934 20.9275C12.8542 20.9844 12.7232 20.9313 12.6425 20.8128C12.5621 20.695 12.5621 20.5534 12.644 20.4963C12.725 20.4394 12.8539 20.4906 12.9355 20.6078C13.0159 20.7281 13.0159 20.87 12.934 20.9275ZM13.639 21.6675C13.5676 21.7478 13.4151 21.7263 13.3037 21.6166C13.1896 21.5094 13.158 21.3572 13.2294 21.2769C13.3022 21.1966 13.4553 21.2191 13.5676 21.3278C13.6811 21.4347 13.7154 21.5875 13.639 21.6675ZM14.6123 22.0969C14.5804 22.2013 14.4337 22.2484 14.2858 22.2044C14.1379 22.1588 14.0416 22.0369 14.071 21.9319C14.1017 21.8269 14.2496 21.7778 14.3984 21.825C14.5457 21.87 14.6426 21.9906 14.6123 22.0969ZM15.68 22.1766C15.684 22.2859 15.5585 22.3772 15.4032 22.3791C15.2474 22.3828 15.121 22.2941 15.1191 22.1859C15.1191 22.0753 15.2419 21.9853 15.3977 21.9828C15.553 21.9797 15.68 22.0678 15.68 22.1766ZM16.6741 22.0044C16.6925 22.1113 16.5851 22.2213 16.4308 22.2503C16.2792 22.2791 16.1393 22.2128 16.1197 22.1066C16.1013 21.9972 16.2108 21.8878 16.3621 21.8591C16.5164 21.8316 16.6545 21.8956 16.6741 22.0044Z" fill="#181616"/>
<path d="M7.9896 33.8444H4.70665C4.66596 33.8444 4.62694 33.8608 4.59817 33.8901C4.5694 33.9194 4.55324 33.9592 4.55324 34.0006V35.6356C4.55324 35.6771 4.5694 35.7168 4.59817 35.7461C4.62694 35.7754 4.66596 35.7919 4.70665 35.7919H5.987V37.8231C5.987 37.8231 5.69951 37.9231 4.90393 37.9231C3.96629 37.9231 2.65587 37.5744 2.65587 34.6394C2.65587 31.7041 4.0206 31.3175 5.30187 31.3175C6.41071 31.3175 6.88812 31.5163 7.19249 31.6122C7.2876 31.6416 7.37658 31.5447 7.37658 31.4584L7.74261 29.8788C7.7432 29.8551 7.73815 29.8317 7.72789 29.8104C7.71763 29.7892 7.70247 29.7708 7.6837 29.7569C7.56006 29.6669 6.80712 29.2381 4.90454 29.2381C2.71264 29.2381 0.464272 30.1875 0.464272 34.7538C0.464272 39.3194 3.03848 39.9997 5.20768 39.9997C7.00379 39.9997 8.09331 39.2178 8.09331 39.2178C8.1381 39.1928 8.14301 39.1288 8.14301 39.0991V34.0003C8.14301 33.9589 8.12685 33.9191 8.09808 33.8898C8.06931 33.8605 8.03029 33.8444 7.9896 33.8444ZM24.7575 29.6281H22.9086C22.8885 29.6282 22.8685 29.6323 22.8499 29.6403C22.8313 29.6482 22.8144 29.6598 22.8002 29.6744C22.786 29.689 22.7748 29.7064 22.7672 29.7254C22.7596 29.7444 22.7557 29.7648 22.7558 29.7853L22.7565 33.4241H19.8748V29.7853C19.8749 29.7648 19.8711 29.7445 19.8635 29.7255C19.8559 29.7064 19.8447 29.6892 19.8305 29.6746C19.8164 29.66 19.7995 29.6483 19.781 29.6404C19.7624 29.6324 19.7425 29.6283 19.7223 29.6281H17.8737C17.8536 29.6282 17.8336 29.6323 17.815 29.6403C17.7964 29.6482 17.7795 29.6598 17.7653 29.6744C17.7511 29.689 17.7399 29.7064 17.7323 29.7254C17.7247 29.7444 17.7208 29.7648 17.721 29.7853V39.6384C17.721 39.725 17.7897 39.7956 17.8737 39.7956H19.7223C19.7425 39.7955 19.7624 39.7913 19.781 39.7833C19.7996 39.7754 19.8165 39.7637 19.8306 39.7491C19.8448 39.7345 19.856 39.7171 19.8636 39.6981C19.8712 39.6791 19.875 39.6587 19.8748 39.6381V35.4238H22.7565L22.7515 39.6381C22.7515 39.725 22.8203 39.7956 22.905 39.7956H24.7575C24.7777 39.7955 24.7976 39.7913 24.8162 39.7833C24.8348 39.7754 24.8517 39.7637 24.8658 39.7491C24.88 39.7345 24.8912 39.7171 24.8988 39.6981C24.9064 39.6791 24.9102 39.6587 24.91 39.6381V29.785C24.91 29.6981 24.8425 29.6281 24.7575 29.6281ZM10.2861 29.8522C9.62832 29.8522 9.09445 30.4 9.09445 31.0781C9.09445 31.7553 9.62832 32.3047 10.2861 32.3047C10.9446 32.3047 11.4781 31.7553 11.4781 31.0781C11.4781 30.4 10.9443 29.8522 10.2861 29.8522ZM11.1931 32.8547H9.35034C9.26566 32.8547 9.19018 32.9434 9.19018 33.0297V39.5459C9.19018 39.7375 9.30738 39.7944 9.45895 39.7944H11.1188C11.3014 39.7944 11.3459 39.7031 11.3459 39.5428V37.5597V33.0119C11.346 32.9914 11.3421 32.971 11.3344 32.952C11.3268 32.933 11.3156 32.9158 11.3014 32.9012C11.2872 32.8866 11.2703 32.8751 11.2517 32.8671C11.2332 32.8592 11.2132 32.8548 11.1931 32.8547ZM31.9358 32.8694H30.1011C30.0809 32.8695 30.061 32.8737 30.0424 32.8818C30.0239 32.8898 30.0071 32.9014 29.9929 32.916C29.9788 32.9307 29.9676 32.948 29.9601 32.967C29.9525 32.986 29.9487 33.0064 29.9489 33.0269V37.8581C29.9489 37.8581 29.4825 38.205 28.8213 38.205C28.1601 38.205 27.9846 37.8997 27.9846 37.24V33.0269C27.9848 33.0063 27.981 32.986 27.9734 32.9669C27.9658 32.9479 27.9546 32.9305 27.9405 32.9159C27.9263 32.9013 27.9094 32.8896 27.8909 32.8817C27.8723 32.8737 27.8523 32.8695 27.8321 32.8694H25.9704C25.9296 32.8697 25.8907 32.8865 25.862 32.916C25.8334 32.9455 25.8174 32.9854 25.8176 33.0269V37.5588C25.8176 39.5181 26.8899 39.9975 28.3648 39.9975C29.5749 39.9975 30.5506 39.3163 30.5506 39.3163C30.5506 39.3163 30.5966 39.6756 30.6181 39.7178C30.6395 39.7603 30.6938 39.8031 30.7531 39.8031L31.9374 39.7978C31.9576 39.7977 31.9776 39.7936 31.9963 39.7856C32.0149 39.7777 32.0319 39.7661 32.0461 39.7514C32.0603 39.7368 32.0716 39.7195 32.0793 39.7004C32.087 39.6813 32.0909 39.6609 32.0908 39.6403L32.0899 33.0259C32.0897 32.9845 32.0735 32.9448 32.0448 32.9154C32.0161 32.886 31.9771 32.8694 31.9364 32.8691L31.9358 32.8694ZM36.9499 32.6481C35.9079 32.6481 35.1992 33.1216 35.1992 33.1216V29.785C35.1993 29.7645 35.1954 29.7441 35.1878 29.7251C35.1802 29.7061 35.169 29.6888 35.1549 29.6742C35.1407 29.6596 35.1239 29.648 35.1053 29.6401C35.0867 29.6321 35.0668 29.6279 35.0467 29.6278H33.1932C33.173 29.6278 33.1529 29.6319 33.1343 29.6398C33.1156 29.6477 33.0986 29.6593 33.0844 29.6739C33.0701 29.6885 33.0588 29.7059 33.0512 29.7249C33.0435 29.744 33.0396 29.7644 33.0398 29.785V39.6381C33.0396 39.6587 33.0435 39.6791 33.0512 39.6982C33.0588 39.7173 33.0701 39.7346 33.0844 39.7492C33.0986 39.7638 33.1156 39.7754 33.1343 39.7833C33.1529 39.7912 33.173 39.7953 33.1932 39.7953H34.4794C34.5377 39.7953 34.5812 39.765 34.6134 39.7116C34.645 39.6584 34.6914 39.2572 34.6914 39.2572C34.6914 39.2572 35.4492 39.9884 36.8845 39.9884C38.5689 39.9884 39.5354 39.1184 39.5354 36.0816C39.5354 33.0447 37.9921 32.6478 36.9496 32.6478L36.9499 32.6481ZM36.2258 38.1994C35.5897 38.1797 35.158 37.8856 35.158 37.8856V34.7653C35.158 34.7653 35.5839 34.4997 36.1061 34.4516C36.7667 34.3913 37.4033 34.5947 37.4033 36.1997C37.4033 37.8925 37.1165 38.2266 36.2261 38.1991L36.2258 38.1994ZM16.6848 38.1625C16.6041 38.1625 16.3973 38.1959 16.1847 38.1959C15.5036 38.1959 15.2725 37.8734 15.2725 37.4559V34.6853H16.6594C16.6796 34.6853 16.6997 34.6812 16.7184 34.6733C16.737 34.6654 16.754 34.6538 16.7683 34.6391C16.7825 34.6245 16.7938 34.6071 16.8014 34.588C16.8091 34.5689 16.8129 34.5484 16.8128 34.5278V33.0103C16.8129 32.9897 16.8089 32.9694 16.8013 32.9503C16.7936 32.9313 16.7823 32.914 16.7681 32.8994C16.7538 32.8849 16.7369 32.8733 16.7182 32.8654C16.6996 32.8575 16.6796 32.8534 16.6594 32.8534H15.2725L15.2704 30.9878C15.2704 30.9169 15.2348 30.8816 15.1544 30.8816H13.2644C13.1914 30.8816 13.1518 30.9147 13.1518 30.9863V32.9144C13.1518 32.9144 12.2047 33.1472 12.1408 33.1659C12.109 33.1754 12.081 33.1951 12.0611 33.2222C12.0412 33.2492 12.0304 33.2821 12.0304 33.3159V34.5275C12.0303 34.548 12.0341 34.5684 12.0417 34.5874C12.0493 34.6064 12.0605 34.6237 12.0747 34.6383C12.0888 34.6529 12.1057 34.6645 12.1242 34.6724C12.1428 34.6804 12.1627 34.6846 12.1829 34.6847H13.1518V37.5997C13.1518 39.7653 14.643 39.9778 15.6493 39.9778C16.1086 39.9778 16.6587 39.8278 16.7496 39.7934C16.8048 39.7725 16.8364 39.7147 16.8364 39.6519L16.8376 38.3191C16.837 38.2778 16.8206 38.2383 16.792 38.2091C16.7634 38.1798 16.7248 38.163 16.6842 38.1622L16.6848 38.1625Z" fill="#100E0F"/>
</g>
<defs>
<clipPath id="clip0_233_51">
<rect width="40" height="40" fill="white"/>
</clipPath>
</defs>
</svg>
