<svg width="40" height="40" viewBox="0 0 40 40" fill="none" xmlns="http://www.w3.org/2000/svg">
<g clip-path="url(#clip0_233_36)">
<path d="M33.7455 0H6.25455C3.00109 0 0.363636 2.68629 0.363636 6V34C0.363636 37.3137 3.00109 40 6.25455 40H33.7455C36.9989 40 39.6364 37.3137 39.6364 34V6C39.6364 2.68629 36.9989 0 33.7455 0Z" fill="#F7DF1E"/>
<path d="M25.2159 28.9062C25.983 30.2344 27.0568 31.1719 28.821 31.1719C30.3551 31.1719 31.3523 30.3906 31.3523 29.2969C31.3523 28.0469 30.3551 27.5781 28.6676 26.7969L27.7472 26.4062C25.0625 25.2344 23.2983 23.8281 23.2983 20.7812C23.2983 17.9688 25.3693 15.7812 28.6676 15.7812C31.0455 15.7812 32.733 16.6406 33.8835 18.8281L31.0455 20.7031C30.4318 19.5312 29.7415 19.0625 28.6676 19.0625C27.5938 19.0625 26.9034 19.7656 26.9034 20.7031C26.9034 21.7969 27.5938 22.2656 29.2045 22.9688L30.125 23.3594C33.2699 24.7656 35.0341 26.0938 35.0341 29.2969C35.0341 32.6562 32.4261 34.5312 28.8977 34.5312C25.446 34.5312 23.2216 32.8906 22.1477 30.7031L25.2159 28.9062ZM12.1761 29.2188C12.7898 30.2344 13.25 31.1719 14.554 31.1719C15.7813 31.1719 16.5483 30.7031 16.5483 28.8281V15.8594H20.2301V28.6719C20.2301 32.5781 18.0057 34.2969 14.7074 34.2969C11.7159 34.2969 10.0284 32.7344 9.18466 30.8594L12.1761 29.2188Z" fill="#181818"/>
</g>
<defs>
<clipPath id="clip0_233_36">
<rect width="40" height="40" fill="white"/>
</clipPath>
</defs>
</svg>
