<svg width="40" height="20" viewBox="0 0 40 20" fill="none" xmlns="http://www.w3.org/2000/svg">
<g clip-path="url(#clip0_233_63)">
<path d="M3.49727 19.5486C5.21873 19.5486 6.61618 18.123 6.61618 16.3669V13.1851H3.49727C1.77582 13.1851 0.378365 14.6107 0.378365 16.3669C0.378365 18.123 1.77582 19.5486 3.49727 19.5486Z" fill="#0ACF83"/>
<path d="M0.375092 10C0.375092 8.24386 1.77255 6.81824 3.494 6.81824H6.61291V13.1851H3.494C1.77255 13.1851 0.375092 11.7595 0.375092 10.0033V10Z" fill="#A259FF"/>
<path d="M0.375092 3.63314C0.375092 1.877 1.77255 0.451385 3.494 0.451385H6.61291V6.81824H3.494C1.77255 6.81824 0.375092 5.39262 0.375092 3.63648V3.63314Z" fill="#F24E1E"/>
<path d="M6.58673 0.451385H9.70564C11.4271 0.451385 12.8245 1.877 12.8245 3.63314C12.8245 5.38929 11.4271 6.8149 9.70564 6.8149H6.58673V0.451385Z" fill="#FF7262"/>
<path d="M12.8573 10C12.8573 11.7561 11.4598 13.1818 9.73837 13.1818C8.01691 13.1818 6.58673 11.7561 6.58673 10C6.58673 8.24386 7.98419 6.81824 9.70564 6.81824C11.4271 6.81824 12.8245 8.24386 12.8245 10H12.8573Z" fill="#1ABCFE"/>
<path d="M16.2675 5.72649V12.3972H17.1085V9.21207H19.1311V8.38408H17.1085V6.56116H19.7365V5.72649H16.2675ZM21.2584 7.082C21.5627 7.082 21.8082 6.8316 21.8082 6.5211C21.8082 6.2106 21.5595 5.99359 21.2584 5.99359C20.9573 5.99359 20.7085 6.24399 20.7085 6.55449C20.7085 6.70473 20.7675 6.84495 20.8722 6.95513C20.9769 7.0653 21.1144 7.12206 21.2649 7.12206L21.2584 7.082ZM20.8329 7.92334V12.3972H21.6413V7.92334H20.8067H20.8329ZM24.7995 7.7898C23.6802 7.7898 22.9013 8.7914 22.9013 9.89984C22.9013 11.0083 23.6867 12.0032 24.7995 12.0032C25.031 12.0073 25.2608 11.9623 25.4744 11.8709C25.6879 11.7795 25.8805 11.6438 26.0398 11.4724V12.0666C26.0375 12.4237 25.9017 12.7664 25.6602 13.0248C25.5382 13.1518 25.3925 13.2527 25.2318 13.3215C25.0711 13.3903 24.8985 13.4256 24.7242 13.4255C24.4565 13.4169 24.1972 13.3287 23.978 13.1717L23.5525 13.9163C23.8793 14.1306 24.2566 14.2511 24.6448 14.2651C25.0331 14.279 25.4178 14.1859 25.7585 13.9956C26.0992 13.8052 26.3833 13.5246 26.5808 13.1834C26.7784 12.8422 26.882 12.4529 26.8809 12.0566V7.91667H26.0398V8.31731C25.8805 8.14588 25.6879 8.01016 25.4744 7.91877C25.2608 7.82738 25.031 7.78566 24.7995 7.7898ZM23.7456 9.89984C23.7265 9.68278 23.7672 9.46458 23.8632 9.26989C23.9592 9.07519 24.1067 8.91177 24.2889 8.79808C24.662 8.56437 25.13 8.56437 25.4998 8.79808C25.8696 9.03178 26.0791 9.45913 26.0431 9.89984C26.0623 10.1169 26.0215 10.3351 25.9255 10.5298C25.8295 10.7245 25.6821 10.8879 25.4998 11.0016C25.1267 11.2353 24.6587 11.2353 24.2889 11.0016C23.9191 10.7679 23.7096 10.3405 23.7456 9.89984Z" fill="#181818"/>
<path d="M29.9147 8.66453C29.6728 8.66541 29.4411 8.76383 29.27 8.93833C29.099 9.11283 29.0025 9.34924 29.0016 9.59602V12.4272H28.1605V7.95339H29.0016V8.33066C29.2569 7.98344 29.6627 7.78312 30.0882 7.7898C30.6249 7.77644 31.1256 8.07025 31.3907 8.54768C31.718 8.08026 32.1893 7.79647 32.6998 7.7898C33.6587 7.7898 34.2544 8.57772 34.2576 9.55262V12.4005H33.4165V9.56263C33.4412 9.38586 33.4157 9.20557 33.3431 9.04311C33.2705 8.88065 33.1538 8.7428 33.0068 8.64587C32.8598 8.54894 32.6886 8.49699 32.5136 8.49615C32.3386 8.49532 32.167 8.54564 32.0191 8.64116C31.872 8.73896 31.7556 8.8778 31.6837 9.04116C31.6117 9.20452 31.5873 9.38552 31.6133 9.56263V12.3938H30.8049V9.56597C30.804 9.3192 30.7076 9.08278 30.5365 8.90828C30.3655 8.73378 30.1337 8.63536 29.8918 8.63448L29.9147 8.66453ZM38.7511 8.43082C38.5596 8.22703 38.3294 8.06533 38.0744 7.95567C37.8195 7.846 37.5452 7.79069 37.2685 7.79314C36.0151 7.79314 35.1413 8.87487 35.1413 10.1302C35.1413 11.3855 36.0249 12.4673 37.2685 12.4673C37.5452 12.4697 37.8195 12.4144 38.0744 12.3047C38.3294 12.1951 38.5596 12.0334 38.7511 11.8296V12.3371H39.5922V7.86325H38.7511V8.43082ZM35.9693 10.1669C35.9267 9.63275 36.182 9.11859 36.6304 8.83814C37.0787 8.55769 37.6122 8.55769 38.09 8.83814C38.3088 8.9767 38.4862 9.17388 38.6028 9.40818C38.7193 9.64249 38.7706 9.90494 38.7511 10.1669C38.7936 10.7011 38.5384 11.2153 38.09 11.4957C37.6416 11.7762 37.1082 11.7762 36.6304 11.4957C36.4115 11.3572 36.2342 11.16 36.1176 10.9257C36.001 10.6914 35.9497 10.4289 35.9693 10.1669Z" fill="#181818"/>
</g>
<defs>
<clipPath id="clip0_233_63">
<rect width="40" height="20" fill="white"/>
</clipPath>
</defs>
</svg>
