<svg width="29" height="27" viewBox="0 0 29 27" fill="none" xmlns="http://www.w3.org/2000/svg">
<g clip-path="url(#clip0_233_92)">
<path d="M14.7025 0.834193C14.5869 0.779077 14.4608 0.750519 14.3333 0.750519C14.2057 0.750519 14.0797 0.779077 13.964 0.834193L0.839021 7.10503C0.684465 7.17888 0.554363 7.29738 0.464715 7.44594C0.375068 7.5945 0.329783 7.76664 0.334432 7.9412C0.33908 8.11576 0.393458 8.28512 0.490879 8.42846C0.588299 8.5718 0.724514 8.68286 0.882771 8.74799L14.0078 14.123C14.2167 14.2087 14.4498 14.2087 14.6588 14.123L24.8333 9.95915V20.4583C24.3691 20.4583 23.924 20.6471 23.5958 20.9831C23.2676 21.3191 23.0833 21.7748 23.0833 22.25V25.8333H28.3333V22.25C28.3333 21.7748 28.1489 21.3191 27.8207 20.9831C27.4925 20.6471 27.0474 20.4583 26.5833 20.4583V9.24069L27.7838 8.74799C27.942 8.68286 28.0782 8.5718 28.1757 8.42846C28.2731 8.28512 28.3275 8.11576 28.3321 7.9412C28.3368 7.76664 28.2915 7.5945 28.2018 7.44594C28.1122 7.29738 27.9821 7.17888 27.8275 7.10503L14.7025 0.834193ZM14.3333 12.3242L3.40977 7.85394L14.3333 2.63482L25.2568 7.85394L14.3333 12.3242Z" fill="#1F2E7C"/>
<path d="M7.64123 13.349C7.52856 13.3055 7.40834 13.2863 7.28809 13.2926C7.16785 13.2989 7.05017 13.3306 6.94241 13.3856C6.83466 13.4406 6.73915 13.5177 6.66186 13.6122C6.58457 13.7068 6.52716 13.8166 6.49323 13.9349L5.61823 16.9807C5.55694 17.1945 5.57569 17.4241 5.67083 17.6245C5.76596 17.8249 5.93065 17.9819 6.13273 18.0646L14.0077 21.2896C14.2167 21.3754 14.4498 21.3754 14.6587 21.2896L22.5337 18.0646C22.7358 17.9819 22.9005 17.8249 22.9956 17.6245C23.0908 17.4241 23.1095 17.1945 23.0482 16.9807L22.1732 13.9349C22.1393 13.8166 22.0819 13.7068 22.0046 13.6122C21.9273 13.5177 21.8318 13.4406 21.724 13.3856C21.6163 13.3306 21.4986 13.2989 21.3784 13.2926C21.2581 13.2863 21.1379 13.3055 21.0252 13.349L14.3332 15.9182L7.64123 13.349ZM7.52223 16.7048L7.90723 15.3646L14.0252 17.7135C14.2238 17.7899 14.4427 17.7899 14.6412 17.7135L20.7592 15.3646L21.1442 16.7048L14.3332 19.4908L7.52223 16.7048Z" fill="#1F2E7C"/>
</g>
<defs>
<clipPath id="clip0_233_92">
<rect width="29" height="26" fill="white" transform="translate(0 0.250031)"/>
</clipPath>
</defs>
</svg>
