<svg width="26" height="28" viewBox="0 0 26 28" fill="none" xmlns="http://www.w3.org/2000/svg">
<g clip-path="url(#clip0_233_82)">
<path fill-rule="evenodd" clip-rule="evenodd" d="M15.1036 9.90992C15.183 9.83232 15.2772 9.77075 15.381 9.72873C15.4848 9.68672 15.596 9.6651 15.7084 9.6651C15.8207 9.6651 15.932 9.68672 16.0357 9.72873C16.1395 9.77075 16.2338 9.83232 16.3131 9.90992L19.7298 13.2433C19.8093 13.3207 19.8724 13.4126 19.9155 13.5139C19.9586 13.6151 19.9807 13.7236 19.9807 13.8333C19.9807 13.9429 19.9586 14.0514 19.9155 14.1526C19.8724 14.2539 19.8093 14.3458 19.7298 14.4233L16.3131 17.7566C16.1527 17.9131 15.9352 18.001 15.7084 18.001C15.4815 18.001 15.264 17.9131 15.1036 17.7566C14.9432 17.6001 14.8531 17.3879 14.8531 17.1666C14.8531 16.9453 14.9432 16.7331 15.1036 16.5766L17.9173 13.8333L15.1036 11.0899C15.0241 11.0125 14.961 10.9206 14.9179 10.8193C14.8748 10.7181 14.8527 10.6095 14.8527 10.4999C14.8527 10.3903 14.8748 10.2818 14.9179 10.1805C14.961 10.0793 15.0241 9.98733 15.1036 9.90992ZM12.8965 9.90992C12.8171 9.83232 12.7229 9.77075 12.6191 9.72873C12.5153 9.68672 12.4041 9.6651 12.2917 9.6651C12.1794 9.6651 12.0681 9.68672 11.9643 9.72873C11.8606 9.77075 11.7663 9.83232 11.687 9.90992L8.27029 13.2433C8.19075 13.3207 8.12763 13.4126 8.08457 13.5139C8.04151 13.6151 8.01935 13.7236 8.01935 13.8333C8.01935 13.9429 8.04151 14.0514 8.08457 14.1526C8.12763 14.2539 8.19075 14.3458 8.27029 14.4233L11.687 17.7566C11.8473 17.9131 12.0649 18.001 12.2917 18.001C12.5185 18.001 12.7361 17.9131 12.8965 17.7566C13.0568 17.6001 13.147 17.3879 13.147 17.1666C13.147 16.9453 13.0568 16.7331 12.8965 16.5766L10.0828 13.8333L12.8965 11.0899C12.976 11.0125 13.0391 10.9206 13.0822 10.8193C13.1252 10.7181 13.1474 10.6095 13.1474 10.4999C13.1474 10.3903 13.1252 10.2818 13.0822 10.1805C13.0391 10.0793 12.976 9.98733 12.8965 9.90992Z" fill="#1F2E7C"/>
<path d="M5.45835 0.499908H22.5417C23.4478 0.499908 24.3169 0.851098 24.9576 1.47622C25.5984 2.10134 25.9584 2.94919 25.9584 3.83324V23.8332C25.9584 24.7173 25.5984 25.5651 24.9576 26.1903C24.3169 26.8154 23.4478 27.1666 22.5417 27.1666H5.45835C4.5522 27.1666 3.68315 26.8154 3.04241 26.1903C2.40166 25.5651 2.04169 24.7173 2.04169 23.8332V22.1666H3.75002V23.8332C3.75002 24.2753 3.93 24.6992 4.25038 25.0118C4.57075 25.3243 5.00528 25.4999 5.45835 25.4999H22.5417C22.9948 25.4999 23.4293 25.3243 23.7497 25.0118C24.07 24.6992 24.25 24.2753 24.25 23.8332V3.83324C24.25 3.39121 24.07 2.96729 23.7497 2.65473C23.4293 2.34217 22.9948 2.16658 22.5417 2.16658H5.45835C5.00528 2.16658 4.57075 2.34217 4.25038 2.65473C3.93 2.96729 3.75002 3.39121 3.75002 3.83324V5.49991H2.04169V3.83324C2.04169 2.94919 2.40166 2.10134 3.04241 1.47622C3.68315 0.851098 4.5522 0.499908 5.45835 0.499908Z" fill="#1F2E7C"/>
<path d="M2.04171 8.83323V7.9999C2.04171 7.77888 2.1317 7.56692 2.29189 7.41064C2.45207 7.25436 2.66933 7.16656 2.89587 7.16656C3.12241 7.16656 3.33967 7.25436 3.49986 7.41064C3.66005 7.56692 3.75004 7.77888 3.75004 7.9999V8.83323H4.60421C4.83075 8.83323 5.04801 8.92103 5.20819 9.07731C5.36838 9.23359 5.45837 9.44555 5.45837 9.66656C5.45837 9.88758 5.36838 10.0995 5.20819 10.2558C5.04801 10.4121 4.83075 10.4999 4.60421 10.4999H1.18754C0.961002 10.4999 0.743741 10.4121 0.583554 10.2558C0.423366 10.0995 0.333374 9.88758 0.333374 9.66656C0.333374 9.44555 0.423366 9.23359 0.583554 9.07731C0.743741 8.92103 0.961002 8.83323 1.18754 8.83323H2.04171ZM2.04171 13.8332V12.9999C2.04171 12.7789 2.1317 12.5669 2.29189 12.4106C2.45207 12.2544 2.66933 12.1666 2.89587 12.1666C3.12241 12.1666 3.33967 12.2544 3.49986 12.4106C3.66005 12.5669 3.75004 12.7789 3.75004 12.9999V13.8332H4.60421C4.83075 13.8332 5.04801 13.921 5.20819 14.0773C5.36838 14.2336 5.45837 14.4456 5.45837 14.6666C5.45837 14.8876 5.36838 15.0995 5.20819 15.2558C5.04801 15.4121 4.83075 15.4999 4.60421 15.4999H1.18754C0.961002 15.4999 0.743741 15.4121 0.583554 15.2558C0.423366 15.0995 0.333374 14.8876 0.333374 14.6666C0.333374 14.4456 0.423366 14.2336 0.583554 14.0773C0.743741 13.921 0.961002 13.8332 1.18754 13.8332H2.04171ZM2.04171 18.8332V17.9999C2.04171 17.7789 2.1317 17.5669 2.29189 17.4106C2.45207 17.2544 2.66933 17.1666 2.89587 17.1666C3.12241 17.1666 3.33967 17.2544 3.49986 17.4106C3.66005 17.5669 3.75004 17.7789 3.75004 17.9999V18.8332H4.60421C4.83075 18.8332 5.04801 18.921 5.20819 19.0773C5.36838 19.2336 5.45837 19.4456 5.45837 19.6666C5.45837 19.8876 5.36838 20.0995 5.20819 20.2558C5.04801 20.4121 4.83075 20.4999 4.60421 20.4999H1.18754C0.961002 20.4999 0.743741 20.4121 0.583554 20.2558C0.423366 20.0995 0.333374 19.8876 0.333374 19.6666C0.333374 19.4456 0.423366 19.2336 0.583554 19.0773C0.743741 18.921 0.961002 18.8332 1.18754 18.8332H2.04171Z" fill="#1F2E7C"/>
</g>
<defs>
<clipPath id="clip0_233_82">
<rect width="26" height="27" fill="white" transform="translate(-0.00012207 0.250031)"/>
</clipPath>
</defs>
</svg>
