<svg width="40" height="40" viewBox="0 0 40 40" fill="none" xmlns="http://www.w3.org/2000/svg">
<g clip-path="url(#clip0_233_43)">
<path fill-rule="evenodd" clip-rule="evenodd" d="M0.0107727 17.1761C0.0107727 17.469 0.0766808 17.6624 0.113615 17.8503C0.354322 19.0724 0.871716 20.1211 1.48558 21.0778C2.3599 22.4411 3.43067 23.5386 4.52754 24.5707C5.47891 25.4657 6.4497 26.3407 7.40489 27.229C7.56886 27.3815 7.72392 27.5569 7.90191 27.744C7.74876 27.8524 7.6214 27.9478 7.48895 28.0357C6.22841 28.8724 5.01564 29.8103 3.89775 30.9465C3.22403 31.6315 2.57259 32.3594 2.11251 33.3107C1.37224 34.8407 1.1102 36.4707 1.66198 38.2111C1.82308 38.7194 2.06889 39.1586 2.41562 39.4832C2.52801 39.5882 2.6541 39.6924 2.7856 39.7332C3.12246 39.8369 3.46569 39.9049 3.80669 39.9869L4.77239 39.9861C5.84029 39.8615 6.81235 39.3828 7.69081 38.5894C9.06373 37.3494 9.98867 35.6869 10.3864 33.5532C10.6755 32.0024 10.6872 30.4499 10.3466 28.9061C10.315 28.7628 10.2752 28.6224 10.2338 28.4836C10.1924 28.3449 10.1437 28.2099 10.0864 28.0369L12.2757 26.3894L12.3085 26.4261C12.2687 26.5965 12.2264 26.7665 12.1904 26.9386C11.9303 28.1819 11.7574 29.4469 11.8195 30.7374C11.8857 32.1124 12.1789 33.3994 12.7941 34.5482C13.2914 35.4774 14.4765 35.5119 15.005 34.5794C15.1925 34.2482 15.3743 33.9019 15.5109 33.5324C15.8679 32.5678 16.1984 31.5861 16.5394 30.6111L16.5989 30.4328C16.5744 30.8944 16.5457 31.2999 16.5327 31.7057C16.5123 32.3394 16.5406 32.9694 16.7062 33.5724C16.8479 34.0882 17.0889 34.4736 17.5404 34.5415C17.8492 34.5878 18.0954 34.4028 18.3224 34.1682C18.6771 33.8019 18.9652 33.3494 19.1792 32.8353C19.7845 31.3807 20.406 29.9349 20.9546 28.4436C21.548 26.8307 22.067 25.1707 22.6182 23.5303L22.7092 23.2394C22.8395 23.909 22.9302 24.5649 23.0974 25.1857C23.2916 25.9061 23.532 26.6094 23.7937 27.2932C23.9176 27.6161 23.9032 27.8257 23.7316 28.0965C23.0133 29.2299 22.3074 30.3769 21.6009 31.5228C21.4446 31.7757 21.2889 32.0332 21.1587 32.3094C21.08 32.4774 21.0278 32.6819 21.0058 32.8778C20.9635 33.2519 21.1402 33.6128 21.4462 33.699C21.7257 33.7778 22.0234 33.8069 22.3084 33.7794C23.2945 33.6844 24.1898 33.2315 24.9813 32.464C26.0069 31.4699 26.3361 30.1132 26.0877 28.5053C26.0206 28.069 25.9018 27.6449 25.7862 27.2244C25.7343 27.0349 25.7308 26.9019 25.8254 26.7253C26.6453 25.1932 27.3457 23.5678 27.9972 21.9049C28.023 21.8394 28.0494 21.774 28.0946 21.704C28.3057 23.1415 28.6235 24.5269 29.1927 25.784C28.9024 26.1503 28.6149 26.4824 28.3547 26.8482C27.7819 27.654 27.2852 28.529 27.0261 29.5961C26.9146 30.0561 26.829 30.5236 26.8786 31.0149C26.9557 31.7778 27.4333 32.2736 28.0067 32.0999C29.2338 31.7282 30.2931 30.9715 31.0671 29.6311C31.588 28.7286 31.6355 27.7219 31.4174 26.6674C31.3575 26.3807 31.2865 26.0986 31.2101 25.7699C31.5129 25.6469 31.808 25.4994 32.1134 25.4082C33.6987 24.9349 35.2668 25.0174 36.7945 25.7665C37.6863 26.204 38.4068 26.9361 38.8341 28.0878C39.356 29.4957 39.0675 30.8315 38.0534 31.7215C37.9588 31.8044 37.8506 31.8699 37.7722 31.9736C37.7242 32.0374 37.6952 32.1649 37.707 32.2528C37.7137 32.304 37.8171 32.3682 37.8767 32.3674C38.21 32.364 38.4804 32.1353 38.7399 31.9003C39.39 31.3115 39.8644 30.5194 39.9666 29.4765L39.9867 29.3982L39.9622 28.719C39.9523 28.6799 39.9695 28.6411 39.9673 28.6115C39.8291 27.0928 39.2092 25.9149 38.3075 24.9915C37.2631 23.9228 36.03 23.4828 34.7258 23.4132C33.663 23.3565 32.6184 23.5632 31.6167 24.0394C31.3311 24.1749 31.048 24.3353 30.7608 24.4865C30.7223 24.3953 30.6809 24.3078 30.6469 24.2174C30.352 23.4274 29.9948 22.6724 29.9158 21.7665C29.8598 21.1232 29.791 20.4807 29.9079 19.8444C30.0203 19.2324 30.1667 18.6307 30.3046 18.0269C30.3756 17.7161 30.3256 17.5419 30.0989 17.4019C30.0199 17.3532 29.934 17.3107 29.8486 17.2944C29.2914 17.1886 28.7419 17.249 28.2022 17.4544C28.0112 17.5274 27.8724 17.6674 27.83 17.944C27.8058 18.1028 27.7565 18.2549 27.7221 18.4115C27.581 19.0628 27.481 19.7265 27.2531 20.3469C26.6819 21.9032 26.0298 23.4007 25.3624 24.8874C25.2902 25.0478 25.2141 25.2053 25.123 25.3999C24.8887 24.7582 24.6387 24.1824 24.5629 23.5074C24.4773 22.744 24.4098 21.9819 24.555 21.2244C24.6629 20.6594 24.804 20.1049 24.9339 19.5474C24.9953 19.2824 24.967 19.1432 24.7836 19.0036C24.6909 18.9332 24.5862 18.8707 24.4818 18.8503C23.9039 18.7382 23.3346 18.7969 22.7771 19.0328C22.6042 19.1061 22.5134 19.2524 22.4606 19.4857C22.3052 20.174 22.1727 20.879 21.9546 21.5336C21.0714 24.1836 20.1627 26.8199 19.255 29.4557C19.0655 30.0061 18.8436 30.5374 18.6299 31.0732C18.5758 31.209 18.4969 31.3286 18.4294 31.4561C18.3752 31.3724 18.3542 31.3149 18.3545 31.2574C18.3561 30.9186 18.3252 30.5699 18.3746 30.2424C18.5239 29.2515 18.6959 28.2661 18.877 27.2844C19.0267 26.4736 19.2008 25.6703 19.3667 24.8649C19.4224 24.5953 19.4234 24.3432 19.2753 24.1165C19.0267 23.7369 18.507 23.6536 18.1988 23.9461L18.0626 24.0469L18.089 23.7594C18.1539 23.1432 18.167 22.529 18.0377 21.9219C17.8766 21.1653 17.464 20.7299 16.8641 20.754C16.5846 20.7653 16.291 20.8278 16.0322 20.9611C14.9436 21.5194 14.1065 22.5082 13.3939 23.6978C13.3293 23.8057 13.244 23.904 13.1529 23.9703C12.2318 24.6386 11.3078 25.2986 10.3841 25.9611L9.35602 26.6982C9.08029 26.354 8.82971 25.9969 8.54538 25.694C7.67712 24.7674 6.79484 23.8636 5.92053 22.9474C5.14555 22.1353 4.39477 21.2894 3.82038 20.214C3.3931 19.414 3.11768 18.5386 3.09126 17.5494C3.05782 16.289 3.33101 15.1374 3.82134 14.0653C4.44858 12.6936 5.30411 11.5928 6.24465 10.5957C7.23964 9.54153 8.31582 8.64653 9.43116 7.82944C10.9916 6.68653 12.5967 5.67486 14.3176 5.00694C16.0821 4.32194 17.8725 3.92986 19.7192 4.20319C20.4451 4.31069 21.1501 4.52819 21.7974 4.99278C22.2931 5.34819 22.6997 5.81361 22.8888 6.54111C23.0754 7.25694 23.0697 7.98236 22.9404 8.70944C22.6777 10.1819 22.0616 11.3957 21.2863 12.4803C20.0147 14.2582 18.4634 15.4686 16.717 16.2682C15.7093 16.7294 14.6726 17.019 13.6079 17.1361C12.739 17.2315 11.8882 17.1307 11.0655 16.7353C10.5207 16.4732 10.0463 16.0724 9.66487 15.4907C9.59673 15.3865 9.50949 15.2736 9.38245 15.3711C9.25795 15.4669 9.23599 15.6219 9.2777 15.779C9.34742 16.0399 9.41174 16.3115 9.52031 16.5449C9.79318 17.1303 10.1912 17.5549 10.6293 17.919C11.4708 18.6194 12.4114 18.8549 13.3866 18.9094C14.8665 18.9932 16.3104 18.704 17.734 18.1844C19.7663 17.4428 21.5334 16.1328 22.9506 14.0661C24.1306 12.3453 24.9734 10.4032 25.1539 8.05819C25.2421 6.91361 25.1482 5.79236 24.7387 4.74819C24.2945 3.61694 23.5883 2.77569 22.7439 2.19611C21.5143 1.35236 20.1872 0.861111 18.8175 0.861111H17.4452C15.7864 0.861111 14.1826 1.48319 12.6237 2.22528C11.4437 2.78736 10.2867 3.45069 9.16339 4.18486C6.71715 5.78444 4.43903 7.7132 2.56781 10.3653C1.63555 11.6865 0.846244 13.1444 0.392211 14.8611C0.25944 15.3636 0.133355 15.9024 0.0384732 16.4219M8.90231 31.4274C8.79628 33.2853 8.1528 34.7915 7.10114 36.0115C6.50956 36.6974 5.83106 37.1857 5.0408 37.3574C4.75424 37.4194 4.461 37.4344 4.18304 37.279C3.78663 37.0574 3.6978 36.5969 3.69016 36.1065C3.67838 35.3249 3.88757 34.6182 4.17444 33.9457C4.54887 33.069 5.09779 32.4007 5.68396 31.7765C6.60731 30.7928 7.60898 29.9603 8.63485 29.1744L8.71222 29.1328C8.87079 29.8994 8.94624 30.6565 8.90231 31.4274ZM16.9125 23.3528C16.8377 23.9461 16.7441 24.5399 16.6116 25.1149C16.1538 27.1053 15.5657 29.034 14.9299 30.9369C14.8124 31.289 14.6414 31.6103 14.4927 31.944C14.4698 31.9957 14.4357 32.0403 14.4026 32.0832C14.2186 32.3211 14.0441 32.3086 13.9511 31.9974C13.8429 31.6357 13.7763 31.2486 13.719 30.8657C13.6805 30.6086 13.6897 30.3386 13.6776 30.0753C13.69 28.2028 14.1266 26.5011 14.8671 24.9169C15.1725 24.2636 15.5049 23.6411 16.0127 23.2278C16.1687 23.1007 16.3439 22.9986 16.5206 22.9336C16.7912 22.834 16.9574 22.9978 16.9125 23.3528ZM22.3775 32.4644L24.3417 29.4632C24.4235 30.5778 22.9757 32.8028 22.3775 32.4644ZM28.6508 30.4449C28.512 30.549 28.3608 30.624 28.2184 30.7203C28.0882 30.8086 28.0452 30.7194 28.0414 30.5728C28.0389 30.4732 28.05 30.369 28.071 30.2724C28.3363 29.0482 28.8244 28.0032 29.5506 27.1532L29.6016 27.119C29.947 28.3836 29.5478 29.7724 28.6508 30.4449Z" fill="#CB6699"/>
</g>
<defs>
<clipPath id="clip0_233_43">
<rect width="40" height="40" fill="white"/>
</clipPath>
</defs>
</svg>
