<svg width="40" height="50" viewBox="0 0 40 50" fill="none" xmlns="http://www.w3.org/2000/svg">
<g clip-path="url(#clip0_233_46)">
<path d="M20 21.9605C21.9776 21.9605 23.5807 20.3169 23.5807 18.2895C23.5807 16.262 21.9776 14.6184 20 14.6184C18.0224 14.6184 16.4193 16.262 16.4193 18.2895C16.4193 20.3169 18.0224 21.9605 20 21.9605Z" fill="#61DAFB"/>
<path d="M20 31.7895C22.8107 34.5921 25.5829 36.25 27.8161 36.25C28.5476 36.25 29.2406 36.0921 29.8182 35.7368C31.8203 34.5526 32.5519 31.5921 31.8588 27.3684C31.7433 26.6184 31.5893 25.8684 31.3968 25.079C32.1669 24.8421 32.8599 24.6053 33.5529 24.3684C37.4417 22.829 39.5979 20.6974 39.5979 18.3684C39.5979 16 37.4417 13.8684 33.5529 12.3684C32.8599 12.0921 32.1669 11.8553 31.3968 11.6579C31.5893 10.8684 31.7433 10.1184 31.8588 9.36842C32.5134 5.06579 31.7818 2.06579 29.7797 0.881581C29.2021 0.526318 28.5091 0.368423 27.7775 0.368423C25.5829 0.368423 22.7722 2.02632 19.9615 4.82895C17.1893 2.02632 14.4171 0.368423 12.184 0.368423C11.4524 0.368423 10.7594 0.526318 10.1818 0.881581C8.17969 2.06579 7.44814 5.02632 8.14118 9.25C8.25669 10 8.4107 10.75 8.60322 11.5395C7.83316 11.7763 7.14011 12.0132 6.44706 12.25C2.55829 13.7895 0.402145 15.9211 0.402145 18.25C0.402145 20.6184 2.55829 22.75 6.44706 24.25C7.14011 24.5263 7.83316 24.7632 8.60322 24.9605C8.4107 25.75 8.25669 26.5 8.14118 27.25C7.48664 31.4737 8.21819 34.4737 10.1818 35.6184C10.7594 35.9737 11.4524 36.1316 12.184 36.1316C14.4171 36.2105 17.1893 34.5526 20 31.7895ZM17.8439 26.4605C18.5369 26.5 19.2685 26.5 20 26.5C20.7316 26.5 21.4631 26.5 22.1562 26.4605C21.4631 27.4079 20.7316 28.2763 20 29.1053C19.2685 28.2763 18.5369 27.4079 17.8439 26.4605ZM13.0695 22.3947C13.4546 23.0658 13.8011 23.6974 14.2246 24.329C13.031 24.1711 11.9144 23.9737 10.8364 23.7368C11.1829 22.6711 11.5679 21.5658 12.03 20.4605C12.338 21.0921 12.6845 21.7632 13.0695 22.3947ZM10.8364 12.8816C11.9144 12.6447 13.031 12.4474 14.2246 12.2895C13.8396 12.9211 13.4546 13.5526 13.0695 14.2237C12.6845 14.8947 12.338 15.5263 12.03 16.1974C11.5294 15.0526 11.1444 13.9474 10.8364 12.8816ZM12.954 18.2895C13.4546 17.2237 13.9936 16.1579 14.6096 15.0921C15.1872 14.0658 15.8417 13.0395 16.4963 12.0132C17.6513 11.9342 18.8064 11.8947 20 11.8947C21.2321 11.8947 22.3872 11.9342 23.5038 12.0132C24.1968 13.0395 24.8128 14.0658 25.3904 15.0921C26.0064 16.1579 26.5455 17.2237 27.046 18.2895C26.5455 19.3553 26.0064 20.4211 25.3904 21.4868C24.8128 22.5132 24.1583 23.5395 23.5038 24.5658C22.3487 24.6447 21.1936 24.6842 20 24.6842C18.7679 24.6842 17.6128 24.6447 16.4963 24.5658C15.8032 23.5395 15.1872 22.5132 14.6096 21.4868C13.9936 20.4211 13.4546 19.3553 12.954 18.2895ZM28.0086 16.1579L26.969 14.1842C26.584 13.5132 26.2374 12.8816 25.8139 12.25C27.0075 12.4079 28.1241 12.6053 29.2021 12.8421C28.8556 13.9474 28.4706 15.0526 28.0086 16.1579ZM28.0086 20.4211C28.4706 21.5263 28.8556 22.6316 29.2021 23.6974C28.1241 23.9342 27.0075 24.1316 25.8139 24.2895C26.1989 23.6579 26.584 23.0263 26.969 22.3553C27.3155 21.7632 27.662 21.0921 28.0086 20.4211ZM28.8941 34.1184C28.5861 34.3158 28.2011 34.3947 27.7775 34.3947C25.8909 34.3947 23.5423 32.8158 21.2321 30.4474C22.3487 29.2237 23.4267 27.8421 24.5048 26.3026C26.3144 26.1447 28.0471 25.8684 29.6642 25.4737C29.8567 26.1842 29.9722 26.8947 30.0877 27.6053C30.6267 30.9605 30.2032 33.3684 28.8941 34.1184ZM30.8963 13.3158C35.2086 14.579 37.7882 16.5132 37.7882 18.2895C37.7882 19.829 36.0171 21.3684 32.8984 22.5921C32.2824 22.829 31.5893 23.0658 30.8963 23.2632C30.3957 21.6447 29.7797 19.9868 29.0096 18.2895C29.7797 16.5921 30.4342 14.9342 30.8963 13.3158ZM27.8161 2.18421C28.2396 2.18421 28.5861 2.26316 28.9326 2.46053C30.2032 3.21053 30.6652 5.57895 30.1262 8.97369C30.0107 9.64474 29.8567 10.3553 29.7027 11.1053C28.0856 10.75 26.353 10.4737 24.5433 10.2763C23.5038 8.73684 22.3872 7.35527 21.2706 6.13158C23.5808 3.80263 25.9294 2.18421 27.8161 2.18421ZM22.1562 10.1184C21.4631 10.0789 20.7316 10.079 20 10.079C19.2685 10.079 18.5369 10.0789 17.8439 10.1184C18.5369 9.17105 19.2685 8.30263 20 7.47369C20.7316 8.30263 21.4631 9.21053 22.1562 10.1184ZM11.1059 2.46053C11.4139 2.26316 11.7989 2.18421 12.2225 2.18421C14.1091 2.18421 16.4578 3.76316 18.7679 6.13158C17.6513 7.35527 16.5733 8.73684 15.4952 10.2763C13.6856 10.4342 11.9529 10.7105 10.3358 11.1053C10.1433 10.3947 10.0278 9.68421 9.91231 8.97369C9.37327 5.61842 9.7968 3.25 11.1059 2.46053ZM9.10375 23.2632C4.79145 22 2.21177 20.0658 2.21177 18.2895C2.21177 16.75 3.98289 15.2105 7.10161 13.9868C7.71765 13.75 8.4107 13.5132 9.10375 13.3158C9.60428 14.9342 10.2203 16.5921 10.9904 18.2895C10.2203 19.9868 9.56578 21.6842 9.10375 23.2632ZM9.91231 27.6053C10.0278 26.9342 10.1818 26.2237 10.3358 25.4737C11.9529 25.829 13.6856 26.1053 15.4952 26.3026C16.5348 27.8421 17.6513 29.2237 18.7679 30.4474C16.4578 32.7763 14.1091 34.3947 12.2225 34.3947C11.7989 34.3947 11.4524 34.3158 11.1059 34.1184C9.7968 33.3684 9.37327 30.9605 9.91231 27.6053ZM8.29519 43.8684C9.14225 42.8026 9.18076 41.6184 8.71872 40.4342C8.25669 39.25 7.29412 38.6974 6.10054 38.6579C4.67594 38.6184 3.21284 38.6579 1.78824 38.6579H1.51872V48.8816H2.6738V45.0132H4.48343C4.71445 45.0132 4.90696 45.0921 5.02247 45.2895L7.33263 48.9605C7.37113 49.0395 7.48664 49.1579 7.56364 49.1579H9.06525C8.14118 47.6974 7.25562 46.3158 6.33156 44.8947C7.14011 44.7763 7.83316 44.5 8.29519 43.8684ZM2.6738 43.7895V39.8816H3.09733C3.98289 39.8816 4.90696 39.8421 5.79252 39.9211C6.83209 39.9605 7.56364 40.7895 7.56364 41.8553C7.56364 42.9211 6.71658 43.75 5.67701 43.7895C4.75295 43.829 3.82888 43.7895 2.6738 43.7895ZM17.5743 44.3026C16.9583 41.5395 14.4941 40.829 12.6075 41.6974C11.1444 42.3684 10.4898 43.6711 10.4513 45.2895C10.4128 46.5132 10.7594 47.6184 11.6834 48.4474C12.723 49.3947 13.9936 49.5132 15.3027 49.2763C16.0342 49.1184 16.6888 48.7632 17.1893 48.2105C16.9968 47.9342 16.8043 47.6579 16.6118 47.4211C15.5337 48.3684 14.3401 48.6842 13.031 48.0526C12.184 47.6184 11.7604 46.5526 11.6834 45.7632H17.6513V45.25C17.6898 44.8947 17.6513 44.579 17.5743 44.3026ZM11.7604 44.9342C11.6449 43.75 12.8 42.4868 14.0706 42.4868C15.5337 42.4474 16.4578 43.3553 16.4963 44.9342H11.7604ZM23.5808 41.5C23.0032 41.3816 22.3872 41.3421 21.8096 41.3816C20.8856 41.4605 20.077 41.8947 19.4225 42.6053C19.615 42.8816 19.769 43.1579 20 43.4737C20.077 43.3947 20.154 43.3158 20.231 43.2763C20.8471 42.6842 21.5786 42.3684 22.4642 42.4474C23.1572 42.4868 23.8118 42.7237 24.0043 43.4342C24.1583 43.9868 24.1198 44.579 24.1583 45.1711C24.0428 45.1711 24.0043 45.1316 23.9658 45.0921C23.0417 44.3026 22.0021 44.1447 20.8856 44.4211C19.846 44.6974 19.1915 45.5263 19.1144 46.5921C19.0374 47.8158 19.5765 48.7237 20.616 49.1579C21.2706 49.4342 22.0021 49.4342 22.6952 49.2763C23.2342 49.1579 23.4652 48.8421 24.2353 48.4079V48.9211H25.3134C25.3134 47.3421 25.3519 45.4079 25.3134 43.5921C25.3134 42.4474 24.6588 41.7368 23.5808 41.5ZM24.1198 46.4737C24.0813 46.5921 24.1198 46.7105 24.1198 46.829C24.1198 47.6579 23.9273 47.9342 23.1572 48.25C22.6182 48.4474 22.0407 48.5263 21.4631 48.329C20.8086 48.1316 20.3465 47.5395 20.3465 46.8684C20.308 46.1974 20.7316 45.5263 21.3861 45.329C22.2717 45.0132 23.0802 45.2105 23.8118 45.7632C24.0428 45.9605 24.1968 46.1579 24.1198 46.4737ZM30.1262 42.5658C31.1273 42.25 32.0513 42.4474 32.7444 43.3158L32.8599 43.3947C33.1294 43.1579 33.3604 42.9211 33.6685 42.6447C33.5529 42.5263 33.5144 42.4474 33.4374 42.329C32.3209 41.1053 30.1262 40.9474 28.7786 41.9342C26.892 43.3553 26.9305 46.1184 27.8546 47.579C28.7401 48.9605 30.0107 49.4342 31.5123 49.2368C32.3979 49.1184 33.1294 48.6842 33.707 47.9342C33.4374 47.6974 33.1679 47.4605 32.8984 47.1842C32.8214 47.2632 32.7829 47.3026 32.7444 47.3816C31.7048 48.5658 29.9722 48.4474 29.0481 47.1842C28.5091 46.4342 28.3936 45.5658 28.5476 44.6974C28.6246 43.7105 29.1251 42.9211 30.1262 42.5658ZM38.1348 47.9342C38.0578 47.9737 38.0193 48.0132 38.0193 48.0132C37.7112 48.25 37.4032 48.2895 37.0567 48.1711C36.7102 48.0132 36.6717 47.6974 36.6332 47.3816V42.8816C36.6332 42.8026 36.6332 42.9605 36.6717 42.5658H38.1348V41.3816H36.5947V39.4079H35.4396V41.5395H34.4385C34.3615 41.5395 34.246 41.6184 34.246 41.6974C34.2075 41.9737 34.246 42.1711 34.246 42.5658H35.4781V47.6184C35.4781 48.25 35.6321 48.8026 36.1711 49.1184C36.7487 49.4737 37.8652 49.3947 38.3658 48.9605C38.4428 48.9211 38.4813 48.7632 38.4813 48.7237C38.3658 48.4868 38.2503 48.2105 38.1348 47.9342Z" fill="#61DAFB"/>
</g>
<defs>
<clipPath id="clip0_233_46">
<rect width="40" height="50" fill="white"/>
</clipPath>
</defs>
</svg>
