<svg width="40" height="46" viewBox="0 0 40 46" fill="none" xmlns="http://www.w3.org/2000/svg">
<g clip-path="url(#clip0_233_40)">
<path d="M0.553215 40.311H2.0388C2.71571 40.311 3.20734 40.4082 3.51295 40.6026C3.81892 40.797 3.97173 41.1058 3.97173 41.5296C3.97173 41.8172 3.90461 42.053 3.77072 42.2373C3.63684 42.4216 3.45868 42.5325 3.23661 42.57V42.6027C3.53937 42.6708 3.75751 42.7982 3.8914 42.9847C4.02528 43.1712 4.0924 43.4192 4.0924 43.7288C4.0924 44.168 3.93531 44.5104 3.62042 44.7562C3.30588 45.0021 2.87852 45.1249 2.3387 45.1249H0.553215V40.311ZM1.56538 42.2175H2.15304C2.42724 42.2175 2.6261 42.1747 2.74892 42.0894C2.87209 42.0037 2.9335 41.8622 2.9335 41.6646C2.9335 41.4802 2.86674 41.3481 2.73285 41.2678C2.59897 41.1876 2.38725 41.1476 2.0977 41.1476H1.56538V42.2175ZM1.56538 43.0275V44.2821H2.22516C2.50364 44.2821 2.70929 44.2285 2.84246 44.1208C2.97563 44.0132 3.04168 43.8487 3.04168 43.6269C3.04168 43.2277 2.75856 43.0275 2.19267 43.0275H1.56538ZM9.37923 42.7114C9.37923 43.5081 9.18322 44.1208 8.79156 44.5489C8.39991 44.9769 7.83831 45.1911 7.10676 45.1911C6.37522 45.1911 5.81362 44.9769 5.42196 44.5489C5.02995 44.1208 4.8343 43.5063 4.8343 42.705C4.8343 41.9036 5.03066 41.292 5.42375 40.8693C5.81683 40.4467 6.37986 40.2354 7.11355 40.2354C7.84723 40.2354 8.40812 40.4485 8.79692 40.874C9.185 41.2999 9.37923 41.9126 9.37923 42.7114ZM5.89538 42.7114C5.89538 43.2493 5.99642 43.6543 6.19921 43.9264C6.40164 44.1986 6.70404 44.3347 7.10676 44.3347C7.91435 44.3347 8.31815 43.7936 8.31815 42.7114C8.31815 41.6271 7.9165 41.085 7.11319 41.085C6.71047 41.085 6.40664 41.2214 6.20206 41.495C5.99749 41.7686 5.89538 42.1736 5.89538 42.7114ZM14.7021 42.7114C14.7021 43.5081 14.5061 44.1208 14.1144 44.5489C13.7228 44.9769 13.1612 45.1911 12.4296 45.1911C11.6981 45.1911 11.1365 44.9769 10.7448 44.5489C10.3528 44.1208 10.1572 43.5063 10.1572 42.705C10.1572 41.9036 10.3535 41.292 10.7466 40.8693C11.1397 40.4467 11.7027 40.2354 12.4364 40.2354C13.1701 40.2354 13.731 40.4485 14.1198 40.874C14.5075 41.2999 14.7021 41.9126 14.7021 42.7114ZM11.2179 42.7114C11.2179 43.2493 11.3189 43.6543 11.5217 43.9264C11.7242 44.1986 12.0266 44.3347 12.4293 44.3347C13.2369 44.3347 13.6407 43.7936 13.6407 42.7114C13.6407 41.6271 13.239 41.085 12.4357 41.085C12.033 41.085 11.7292 41.2214 11.5246 41.495C11.32 41.7686 11.2179 42.1736 11.2179 42.7114ZM17.533 45.1249H16.5208V41.1606H15.2244V40.311H18.8293V41.1606H17.533V45.1249ZM22.3817 43.7882C22.3817 44.2231 22.2268 44.5654 21.9165 44.8156C21.6063 45.0658 21.1746 45.1911 20.6219 45.1911C20.1125 45.1911 19.6619 45.0943 19.2702 44.9013V43.9531C19.5923 44.0978 19.865 44.2 20.0882 44.2594C20.3113 44.3188 20.5152 44.3484 20.7005 44.3484C20.9226 44.3484 21.0929 44.3055 21.2114 44.2202C21.3303 44.1345 21.3895 44.0074 21.3895 43.8382C21.3895 43.7439 21.3635 43.66 21.3114 43.5862C21.2592 43.5128 21.1825 43.4419 21.0811 43.3738C20.9797 43.3058 20.7737 43.1971 20.4623 43.048C20.1707 42.9098 19.9518 42.777 19.8061 42.6495C19.6601 42.5221 19.5437 42.3741 19.4566 42.2053C19.3695 42.0361 19.3259 41.8384 19.3259 41.6127C19.3259 41.1868 19.4691 40.852 19.7554 40.6083C20.0418 40.3646 20.4374 40.2429 20.9425 40.2429C21.1907 40.2429 21.4274 40.2724 21.6527 40.3318C21.878 40.3912 22.1136 40.4744 22.3596 40.582L22.0329 41.3755C21.7783 41.2704 21.5677 41.1966 21.401 41.1548C21.2342 41.113 21.0707 41.0922 20.9097 41.0922C20.718 41.0922 20.5712 41.1372 20.4688 41.2272C20.3663 41.3172 20.3153 41.4345 20.3153 41.5796C20.3153 41.6696 20.336 41.7481 20.3774 41.815C20.4188 41.882 20.4845 41.9468 20.5748 42.0094C20.6651 42.0721 20.879 42.1844 21.2164 42.3471C21.6627 42.5624 21.9686 42.778 22.1339 42.994C22.2992 43.21 22.3817 43.4743 22.3817 43.7882ZM25.089 45.1249H24.0769V41.1606H22.7805V40.311H26.3854V41.1606H25.089V45.1249ZM28.1323 43.2777V45.1249H27.1201V40.311H28.5111C29.1598 40.311 29.6397 40.4301 29.951 40.6681C30.2623 40.9064 30.418 41.2682 30.418 41.7531C30.418 42.0364 30.3409 42.2881 30.1863 42.5088C30.0317 42.7294 29.8128 42.9022 29.5301 43.0272C30.2484 44.1093 30.7165 44.8084 30.9342 45.1245H29.811L28.6714 43.2774H28.1323V43.2777ZM28.1323 42.4479H28.459C28.7789 42.4479 29.0152 42.3943 29.1677 42.2866C29.3201 42.179 29.3962 42.0098 29.3962 41.7794C29.3962 41.5512 29.3183 41.3888 29.1627 41.292C29.007 41.1955 28.766 41.1472 28.4394 41.1472H28.1323V42.4479ZM34.4574 45.1249L34.1111 43.979H32.3706L32.0242 45.1249H30.9335L32.6183 40.2915H33.8558L35.5474 45.1249H34.4574ZM33.8693 43.1229C33.5494 42.0847 33.3692 41.4975 33.3288 41.3614C33.2885 41.2254 33.2599 41.1177 33.2424 41.0389C33.1706 41.3197 32.965 42.0145 32.6251 43.1229H33.8693ZM39.4468 41.8125C39.4468 42.3306 39.2861 42.7269 38.9652 43.0009C38.6442 43.2756 38.1876 43.4127 37.5953 43.4127H37.1611V45.1249H36.1489V40.311H37.6738C38.2529 40.311 38.6931 40.4366 38.9948 40.6879C39.2961 40.9395 39.4468 41.3143 39.4468 41.8125ZM37.1611 42.5764H37.4942C37.8055 42.5764 38.0383 42.5145 38.1929 42.3903C38.3475 42.2661 38.4246 42.0858 38.4246 41.8489C38.4246 41.6095 38.3596 41.4327 38.2304 41.3186C38.1008 41.2045 37.8977 41.1472 37.6213 41.1472H37.1608L37.1611 42.5764ZM23.5528 20.2132C22.8448 19.9782 21.8255 19.94 20.4948 19.94H15.7157V27.14H20.8654C21.7587 27.14 22.386 27.0504 22.7473 26.9827C23.3839 26.8682 23.9162 26.6479 24.3439 26.3793C24.7716 26.1115 25.1233 25.7065 25.3989 25.1938C25.6742 24.6812 25.8124 24.0825 25.8124 23.4115C25.8124 22.6252 25.6128 21.9787 25.2136 21.3991C24.8148 20.8191 24.2611 20.448 23.5528 20.2132ZM22.8187 17.1129C23.522 16.902 24.0522 16.5204 24.4082 16.0318C24.7649 15.5433 24.943 14.9148 24.943 14.1764C24.943 13.4769 24.7766 12.8534 24.4439 12.321C24.1111 11.7889 23.6359 11.4278 23.0186 11.2312C22.4003 11.0354 21.3406 10.94 19.839 10.94H15.7157V17.42H20.181C21.4074 17.42 22.2864 17.2764 22.8187 17.1129ZM38.9223 5.58536C38.9223 2.77664 36.6641 0.5 33.8786 0.5H6.12137C3.33587 0.5 1.07768 2.77664 1.07768 5.58536V33.5746C1.07768 36.3834 3.33587 38.66 6.12137 38.66H33.8786C36.6641 38.66 38.9223 36.3834 38.9223 33.5746V5.58536ZM28.0581 26.1572C27.645 27.0054 27.1337 27.6595 26.5257 28.1196C25.9173 28.5793 25.1544 29.0001 24.2372 29.2348C23.32 29.4699 22.1961 29.66 20.8654 29.66H12.8595V8.42H20.7373C22.3342 8.42 23.6145 8.6432 24.5792 9.06944C25.5442 9.49604 26.2993 10.157 26.8467 11.0433C27.3929 11.93 27.6664 12.8599 27.6664 13.8279C27.6664 14.7286 27.4236 15.5779 26.9395 16.3735C26.4547 17.1691 25.7228 17.8117 24.7438 18.3002C26.0077 18.6739 26.9798 19.3122 27.6593 20.2129C28.3387 21.114 28.6786 22.1778 28.6786 23.4046C28.6782 24.3918 28.4718 25.3094 28.0581 26.1572Z" fill="#5B4282"/>
</g>
<defs>
<clipPath id="clip0_233_40">
<rect width="40" height="45" fill="white" transform="translate(0 0.5)"/>
</clipPath>
</defs>
</svg>
