<svg width="40" height="26" viewBox="0 0 40 26" fill="none" xmlns="http://www.w3.org/2000/svg">
<g clip-path="url(#clip0_233_58)">
<path d="M0.363953 23.022H1.66502V16.8769L3.67933 22.2341C3.91687 22.8826 4.24213 23.1117 4.88032 23.1117C5.5185 23.1117 5.83141 22.8826 6.06895 22.2341L8.08326 16.8769V23.022H9.38433V16.8871C9.38433 16.2886 9.18416 15.9989 8.77117 15.8496C7.7827 15.4807 7.1195 15.8 6.81925 16.5981L4.84263 21.8852L2.92872 16.5977C2.64082 15.8 1.96527 15.4807 0.976798 15.8492C0.563801 15.9989 0.363636 16.2883 0.363636 16.8867L0.363953 23.022ZM10.4665 18.0197H11.7673V21.4053C11.7553 21.589 11.8167 22.0208 12.5293 22.0345C12.8929 22.0413 15.336 22.0345 15.3589 22.0345V18.003H16.6628C16.6688 18.003 16.6615 23.5008 16.6615 23.5235C16.6685 24.8795 15.255 25.1739 14.6032 25.1966H10.4947V24.1496C10.5017 24.1496 14.6003 24.1508 14.6105 24.1492C15.4482 24.0436 15.349 23.5458 15.3487 23.3784V22.9701H12.5835C11.297 22.9561 10.4773 22.2845 10.4669 21.5117C10.4662 21.4409 10.495 18.0538 10.4665 18.0197Z" fill="#00618A"/>
<path d="M17.6658 23.022H21.4068C21.8449 23.022 22.2705 22.9125 22.6082 22.7231C23.171 22.414 23.4462 21.9951 23.4462 21.4458V20.3087C23.4462 19.8598 23.1336 19.4405 22.5204 19.1617C22.1952 19.0117 21.7945 18.9326 21.4065 18.9326H19.8299C19.3045 18.9326 19.0543 18.7432 18.9919 18.3242C18.9795 18.2742 18.9795 18.2345 18.9795 18.1845V17.4761C18.9795 17.4364 18.9795 17.3962 18.9919 17.3466C19.0543 17.0273 19.1921 16.9375 19.6551 16.8875L19.7802 16.8777H23.4962V15.8405H19.8429C19.3175 15.8405 19.0423 15.8803 18.792 15.9701C18.0164 16.2595 17.6782 16.7182 17.6782 17.5163V18.4239C17.6782 19.1224 18.3417 19.7208 19.4549 19.8606C19.5804 19.8701 19.7051 19.8807 19.8302 19.8807H21.1817C21.2317 19.8807 21.2817 19.8807 21.3194 19.8902C21.7324 19.9299 21.9073 20.0201 22.0327 20.1992C22.1077 20.289 22.1324 20.3792 22.1324 20.4784V21.3864C22.1324 21.4958 22.0701 21.6356 21.9449 21.7553C21.8325 21.875 21.6447 21.9549 21.3945 21.975L21.2567 21.9849H17.6658V23.022ZM31.5636 21.2167C31.5636 22.2837 32.2268 22.8822 33.5652 23.0023C33.6903 23.0121 33.8154 23.022 33.9405 23.022H37.3313V21.9849H33.9158C33.1526 21.9849 32.865 21.7553 32.865 21.2064V15.8398H31.5639L31.5636 21.2167ZM24.2766 21.2705V17.5716C24.2766 16.6322 24.8283 16.0621 25.9191 15.8822C26.0318 15.8621 26.1576 15.8523 26.27 15.8523H28.7401C28.8655 15.8523 28.9782 15.8621 29.1034 15.8822C30.1941 16.0621 30.7462 16.6318 30.7462 17.5716V21.2705C30.7462 22.0333 30.5118 22.4409 29.9718 22.7068L31.2539 24.0905H29.7428L28.7059 22.9708L27.662 23.05H26.27C26.0318 23.05 25.7813 23.0102 25.5055 22.9201C24.6779 22.6504 24.2766 22.1303 24.2766 21.2705ZM25.6809 21.1807C25.6809 21.2307 25.6933 21.2811 25.7059 21.3409C25.781 21.7708 26.1199 22.0106 26.6336 22.0106H27.8156L26.7299 20.8383H28.2409L29.1876 21.861C29.3624 21.7492 29.4771 21.5795 29.5173 21.361C29.5297 21.311 29.5297 21.261 29.5297 21.211V17.6625C29.5297 17.6227 29.5297 17.5724 29.5173 17.5224C29.4419 17.1224 29.1034 16.8928 28.602 16.8928H26.6333C26.0569 16.8928 25.6806 17.1928 25.6806 17.6625L25.6809 21.1807Z" fill="#E48E00"/>
<path d="M38.4759 14.1182C37.6762 14.092 37.0653 14.1811 36.5427 14.4443C36.3941 14.5193 36.1576 14.5212 36.1335 14.7436C36.2149 14.8462 36.2276 14.9989 36.2925 15.1246C36.4173 15.3659 36.6279 15.6894 36.8157 15.8587C37.0206 16.0439 37.2322 16.2424 37.4526 16.403C37.8438 16.6886 38.2808 16.8515 38.658 17.1371C38.88 17.3061 39.1005 17.5182 39.3174 17.7087C39.4248 17.8023 39.4964 17.9489 39.636 18.0076V17.9807C39.5629 17.8693 39.5439 17.7163 39.4767 17.5996L39.1809 17.2458C38.8918 16.7867 38.525 16.3841 38.1345 16.0492C37.8235 15.7822 37.1273 15.4212 36.9975 14.9883L36.9747 14.9614C37.1951 14.9314 37.4536 14.836 37.6569 14.7708C37.9989 14.661 38.3046 14.6894 38.6577 14.5803L39.1353 14.4167V14.3083C38.957 14.0894 38.8294 13.7992 38.6349 13.6011C38.1259 13.0826 37.5698 12.5644 36.9975 12.1318C36.6801 11.8924 36.2877 11.7367 35.9511 11.5337C35.8383 11.4652 35.6394 11.4299 35.5644 11.3159C35.3873 11.0466 35.2913 10.7053 35.1548 10.3913C34.8698 9.73409 34.5892 9.01591 34.3361 8.32386C34.1638 7.85227 34.0511 7.38712 33.836 6.96401C32.8032 4.93333 31.6916 3.70757 29.9696 2.50303C29.6031 2.24659 29.1619 2.14583 28.6961 2.01363L27.9454 1.95909C27.7931 1.88295 27.6341 1.65947 27.4906 1.55114C26.9199 1.12008 25.4567 0.182575 25.0342 1.41553C24.7675 2.19356 25.4333 2.95265 25.6711 3.34697C25.838 3.62348 26.0521 3.93333 26.1715 4.24432C26.2501 4.44886 26.2634 4.65379 26.3308 4.87007C26.4958 5.40265 26.6399 5.98257 26.8537 6.47462C26.9617 6.72386 27.0811 6.98636 27.2176 7.20909C27.3012 7.34545 27.445 7.40606 27.4675 7.61705C27.3272 7.85189 27.319 8.21705 27.2401 8.51439C26.8848 9.85492 27.0187 11.5212 27.5359 12.5133C27.6946 12.8182 28.0683 13.4712 28.582 13.2205C29.0315 13.0015 28.9314 12.3231 29.06 11.7242C29.0891 11.589 29.071 11.489 29.1281 11.3981V11.4254L29.5376 12.4045C29.8407 12.9883 30.3781 13.5977 30.8339 14.0095C31.0702 14.2227 31.2564 14.592 31.5617 14.7167V14.689H31.5392C31.4797 14.5788 31.3875 14.5333 31.3115 14.4443C31.1335 14.2356 30.9356 13.9765 30.7886 13.7371C30.374 13.0644 30.0079 12.3277 29.6741 11.561C29.5148 11.1951 29.3764 10.7913 29.2421 10.4186C29.1901 10.275 29.1908 10.0576 29.0831 9.98371C28.9355 10.2564 28.7192 10.4773 28.6052 10.7996C28.4234 11.3148 28.3999 11.9432 28.3325 12.5947L28.2869 12.6216C27.9698 12.5303 27.8587 12.1402 27.7408 11.8057C27.4431 10.9598 27.3877 9.59735 27.6499 8.62348C27.7177 8.37121 28.024 7.57765 27.8998 7.3447C27.8406 7.1125 27.6452 6.97841 27.5362 6.80038C27.401 6.58106 27.2658 6.29242 27.1723 6.03864C26.9285 5.37917 26.8148 4.63864 26.5585 3.97159C26.4357 3.65265 26.2285 3.3303 26.0581 3.04697C25.8697 2.73257 25.6584 2.50151 25.5121 2.12197C25.4602 1.98712 25.3895 1.77083 25.4665 1.6322C25.4909 1.53863 25.5261 1.49962 25.6033 1.46894C25.7351 1.34735 26.1025 1.50947 26.2399 1.57765C26.6048 1.75909 26.9091 1.93144 27.2183 2.17614C27.3665 2.29394 27.5163 2.52121 27.6959 2.58409H27.9005C28.2207 2.67197 28.5795 2.61098 28.8785 2.7197C29.4074 2.91212 29.8812 3.21098 30.3113 3.53598C31.6222 4.52614 32.6936 5.93523 33.4272 7.61629C33.545 7.88712 33.5963 8.14508 33.6998 8.4322C33.9095 9.01099 34.1737 9.60682 34.3821 10.1731C34.5901 10.7379 34.7931 11.308 35.0874 11.778C35.2419 12.025 35.8393 12.1576 36.1107 12.2947C36.301 12.3909 36.6127 12.4913 36.7929 12.6208C37.1372 12.8693 37.471 13.1652 37.7937 13.4371C37.9549 13.5742 38.4512 13.8723 38.4759 14.1182ZM28.3097 3.75492C28.1431 3.75114 28.0249 3.77689 27.9002 3.80947V3.83636H27.923C28.0025 4.0322 28.1428 4.15795 28.2413 4.32614L28.469 4.89735L28.4915 4.87045C28.6324 4.75189 28.6967 4.56212 28.6961 4.27197C28.6394 4.20076 28.6311 4.11174 28.5824 4.02727C28.5177 3.91364 28.3917 3.85 28.3097 3.75492Z" fill="#00618A"/>
</g>
<defs>
<clipPath id="clip0_233_58">
<rect width="40" height="25" fill="white" transform="translate(0 0.5)"/>
</clipPath>
</defs>
</svg>
